<svg version="1.1" xmlns="http://www.w3.org/2000/svg" viewBox="0 0 1984.285714285714 1292.8571428571431" width="1984.285714285714" height="1292.8571428571431">
  <!-- svg-source:excalidraw -->
  
  <defs>
    <style>
      @font-face {
        font-family: "Virgil";
        src: url("https://excalidraw.com/FG_Virgil.woff2");
      }
      @font-face {
        font-family: "Cascadia";
        src: url("https://excalidraw.com/Cascadia.woff2");
      }
    </style>
  </defs>
  <rect x="0" y="0" width="1984.285714285714" height="1292.8571428571431" fill="#ffffff"></rect><g><g transform="translate(457.0794759454102 735.1006333583168) rotate(0 -11.289058348053583 75.11712017570227)"><path d="M-0.42938735112547877 -0.5568261779844761 C-4.632333762253474 24.654852337851427, -20.38960497481202 125.56771122522306, -24.124162256301343 150.79106652938904 M1.5460455601941794 1.7652361332345756 C-2.3842930884182705 26.666219036937928, -17.751886869691436 124.48836350095111, -21.91433740146734 148.9866342216558" stroke="#000000" stroke-width="1" fill="none"></path></g><g transform="translate(457.0794759454102 735.1006333583168) rotate(0 -11.289058348053583 75.11712017570227)"><path d="M-28.446976773025984 117.92074610026046 C-24.434494884538385 131.61372693123099, -22.255324607981166 142.7650124636169, -23.05220595114209 150.93387287182875 M-27.302425248133535 118.56740418368443 C-25.95518980850803 127.7882393517753, -24.148197838788395 135.69131477303785, -22.30304678455271 149.59600330775746" stroke="#000000" stroke-width="1" fill="none"></path></g><g transform="translate(457.0794759454102 735.1006333583168) rotate(0 -11.289058348053583 75.11712017570227)"><path d="M-8.191626098770936 121.2132787802494 C-12.08840278692361 133.54598505753387, -17.831633905224898 143.40947429766817, -23.05220595114209 150.93387287182875 M-7.047074573878486 121.85993686367337 C-10.953431129679581 130.23490950890795, -14.369162329524462 137.28902472252605, -22.30304678455271 149.59600330775746" stroke="#000000" stroke-width="1" fill="none"></path></g></g><g transform="translate(341.79365079365084 886.2857142857144) rotate(0 133.5 32)"><path d="M-0.944099738139376 0.46864107417896683 C92.14980587180399 1.2050691154294797, 181.7789111117919 1.0428959930117436, 267.1250265274674 -0.05704302071096003 M-0.5577752443348005 0.751331114843066 C66.26647899271087 1.1655692671729432, 133.61824067291298 0.8967797006955014, 267.67869803418 -0.24869609655214994 M268.47606882825494 -0.6815913058817387 C265.47330567732456 13.406228568404913, 266.1541384209693 28.202266063541174, 265.6405153013766 64.31411274895072 M266.7907721232623 0.36116199381649494 C266.52694147221746 14.79913687594235, 266.84909700743856 28.085792254284026, 267.95114742033184 64.83712683804333 M267.0785730114168 63.50593329957703 C160.05520231828385 60.5565523551083, 54.678076325703266 61.822478445147844, 0.3661909534212738 63.60019099830893 M266.7011545873004 64.293803577054 C161.9015975550808 65.92527398374096, 56.11944459795123 65.44854509360324, 0.5513903978800222 64.05871846655296 M-1.9668411277234554 62.61192366108298 C0.3370195020735264 46.80133295282721, -0.7868123660981655 29.727036037296052, 1.5570490099489689 0.31275924667716026 M-0.02315993793308735 64.04663603194058 C-0.27452314503490927 40.549774502590296, 1.1468030750006437 18.342633508518333, 0.11050866357982159 0.3636996615678072" stroke="#000000" stroke-width="1" fill="none"></path></g><g transform="translate(409.79365079365084 904.7857142857144) rotate(0 76 12)"><text x="0" y="19" font-family="Cascadia, Segoe UI Emoji" font-size="20px" fill="#000000" text-anchor="start" style="white-space: pre;" direction="ltr">UserIdService</text></g><g><g transform="translate(992.2898931405658 1118.1835947970194) rotate(0 -222.50685366684277 -77.91367031639174)"><path d="M-0.07172929868102074 0.755023368448019 C-74.0839814170999 -25.193757545469058, -370.9873240305993 -130.1521446412695, -444.9419780350045 -156.5823640012315 M-1.5685259098280222 0.10580669154413047 C-75.11116949516251 -25.54947370566028, -368.7889770952843 -128.7772300481224, -442.5801888626103 -154.97722336074733" stroke="#000000" stroke-width="1" fill="none"></path></g><g transform="translate(992.2898931405658 1118.1835947970194) rotate(0 -222.50685366684277 -77.91367031639174)"><path d="M-411.3232425188771 -156.3813559112315 C-419.197325980887 -154.4288325118872, -428.09905273677987 -154.50662974593106, -441.68904354013847 -154.50136232173466 M-411.72874828596923 -154.55023921441185 C-418.96694806703647 -155.76562540378276, -426.1011210395995 -155.54459113682674, -442.97387034595357 -154.3761058224591" stroke="#000000" stroke-width="1" fill="none"></path></g><g transform="translate(992.2898931405658 1118.1835947970194) rotate(0 -222.50685366684277 -77.91367031639174)"><path d="M-418.153562509823 -137.03021301973476 C-424.3294055124582 -139.4784666547718, -431.67636094334364 -143.96112370705296, -441.68904354013847 -154.50136232173466 M-418.5590682769151 -135.1990963229151 C-424.17667953436376 -140.59792073371716, -429.84635875476 -144.5259787346857, -442.97387034595357 -154.3761058224591" stroke="#000000" stroke-width="1" fill="none"></path></g></g><g><g transform="translate(901.8932070501212 904.7857142857142) rotate(0 9.282208190756648 22.11607378870451)"><path d="M1.0179742611944673 1.0355621181428434 C4.261056556799697 8.509219202789533, 15.708940515412328 36.70844909147853, 18.47114436253123 43.69851929258029 M0.09327201898209747 0.5336282848287373 C3.3013890256502356 7.787823087115829, 14.9947043904628 34.77646165272714, 17.74307645732686 42.0926671724062" stroke="#000000" stroke-width="1" fill="none"></path></g><g transform="translate(901.8932070501212 904.7857142857142) rotate(0 9.282208190756648 22.11607378870451)"><path d="M3.897751656330616 25.61156462537297 C7.038698127252069 27.753217105234896, 9.224660344027859 30.27070253012438, 18.55250047395155 41.79937366277385 M1.7447488074819155 24.011047849750007 C4.551274846898395 29.01947991044834, 9.409995730529037 33.509452156598, 18.23546284126267 42.07580613784898" stroke="#000000" stroke-width="1" fill="none"></path></g><g transform="translate(901.8932070501212 904.7857142857142) rotate(0 9.282208190756648 22.11607378870451)"><path d="M18.58346859641498 19.62177694867657 C18.469953963973676 23.192111969048934, 17.458528929755474 27.01369925234725, 18.55250047395155 41.79937366277385 M16.43046574756628 18.021260173053605 C15.927694700768793 24.268849505363896, 17.534266110937217 30.085259195350524, 18.23546284126267 42.07580613784898" stroke="#000000" stroke-width="1" fill="none"></path></g></g><g><g transform="translate(1054.897746452976 1119.9999999999998) rotate(0 -10.232117077570024 -44.40042749947315)"><path d="M0.2834006868302823 0.03455398455262193 C-3.0461918970590425 -14.96531174035869, -16.636548359516063 -74.00710621635129, -19.77616825663781 -88.83540898349892 M-1.026952681923285 -0.9929091188963503 C-4.536091458995079 -15.337065954740488, -17.801799106356675 -73.13590695948972, -20.74763484197034 -87.63894956994628" stroke="#000000" stroke-width="1" fill="none"></path></g><g transform="translate(1054.897746452976 1119.9999999999998) rotate(0 -10.232117077570024 -44.40042749947315)"><path d="M-4.647061415667494 -62.36329874836366 C-11.115065038449979 -68.31942623827507, -16.363620487640993 -77.7412030771433, -19.617901909074916 -86.3005457750318 M-5.2364927406411965 -62.802786553953695 C-7.371041988839732 -66.66321556123557, -10.726571490010901 -71.68709781911951, -21.15465804646088 -87.05605353291904" stroke="#000000" stroke-width="1" fill="none"></path></g><g transform="translate(1054.897746452976 1119.9999999999998) rotate(0 -10.232117077570024 -44.40042749947315)"><path d="M-24.695074755679443 -57.981841969557976 C-24.854715486438955 -65.37328412579649, -23.752415749600335 -76.18302879140731, -19.617901909074916 -86.3005457750318 M-25.284506080653145 -58.42132977514801 C-23.282949133033853 -63.30365722738958, -22.539076587030575 -69.22345633169715, -21.15465804646088 -87.05605353291904" stroke="#000000" stroke-width="1" fill="none"></path></g></g><g transform="translate(837.8571428571424 953.4285714285713) rotate(0 133.5 32)"><path d="M-0.8799222582764953 -1.2095372647064357 C100.03772794820273 0.9390988162814832, 202.00433670181636 1.6752455841927265, 268.04962216031794 0.7965359082655757 M0.15344865603908747 0.26830926279147416 C72.15856220258678 0.3921674331557271, 144.1594763064022 -0.1729482242625716, 267.6263074770298 -0.3320130948638126 M265.40253994241357 1.0055602453649044 C266.33597243204713 13.173996498435736, 267.14866018667817 29.584463848918677, 267.1070826984942 64.98893901333213 M266.30431364290416 0.5238566268235445 C266.3258416878432 23.39977859146893, 267.128914199993 45.153372751548886, 267.80392424575984 64.22726707346737 M267.7640394745499 65.19713039958933 C177.23788570248976 61.187069233663934, 85.03186161682183 63.42348608805589, 1.4091889193467766 63.11279298825348 M267.1497035703067 63.22131107581723 C181.2722725456475 61.96591189881152, 96.4702221258146 62.22374568228372, 0.26759896877240386 64.21223921270845 M-1.1850919984281063 62.42414387688041 C-0.6953161083161831 41.567175986617805, 0.45162305012345316 20.050627865642312, -0.4543575309216976 -0.2923751212656498 M-0.9838272500783205 63.67481146939099 C0.46353821866214273 49.25996822007001, -0.025942217186093353 34.31618095524609, -0.8110942412167788 -0.3301177751272917" stroke="#000000" stroke-width="1" fill="none"></path></g><g transform="translate(848.8571428571424 973.9285714285713) rotate(0 122 9.5)"><text x="0" y="15" font-family="Cascadia, Segoe UI Emoji" font-size="16px" fill="#000000" text-anchor="start" style="white-space: pre;" direction="ltr">AuthRedirectStorageService</text></g><g><g transform="translate(583.6582204441163 731.0634920634918) rotate(0 96.4023708673605 43.76955702494729)"><path d="M-0.9139190353453159 1.0142448462545872 C31.34869345483809 15.350447563885682, 161.56019180405283 71.66201880752558, 193.71866077006632 85.68616631885786 M0.8071347417589276 0.501119445199147 C32.98784986917369 15.039723957323439, 161.61693547571412 72.78579356737886, 193.3024264229073 87.03799460469541" stroke="#000000" stroke-width="1" fill="none"></path></g><g transform="translate(583.6582204441163 731.0634920634918) rotate(0 96.4023708673605 43.76955702494729)"><path d="M165.0732757704139 86.53083278736099 C172.11998797188124 84.64055174603718, 180.57396765867742 88.36820207837752, 193.49546985976238 85.43773503615317 M164.2947157485217 84.66001602945849 C174.3771201341271 85.18073091092484, 187.69764473394366 87.39096468001097, 192.51474608197648 86.92025753310678" stroke="#000000" stroke-width="1" fill="none"></path></g><g transform="translate(583.6582204441163 731.0634920634918) rotate(0 96.4023708673605 43.76955702494729)"><path d="M173.48433154393055 67.81254912777749 C177.8558661351481 71.69673209332936, 183.68630727470133 81.2629049657018, 193.49546985976238 85.43773503615317 M172.70577152203836 65.94173236987498 C179.5232424024762 73.76564186890512, 189.53386225567493 83.34186364254953, 192.51474608197648 86.92025753310678" stroke="#000000" stroke-width="1" fill="none"></path></g></g><g transform="translate(717.7619047619048 830.8571428571427) rotate(0 133.5 32)"><path d="M-1.5051243559684901 -1.1240493549925177 C107.95573958740981 -0.8635665830956105, 213.50010370303846 1.6236318421038027, 265.482401641442 -0.9966507533200591 M-0.017193076495711505 -0.6370787244900777 C62.924451218675465 0.12475416122271493, 124.02885510587087 0.01106591123363454, 266.8080401245282 -0.4357552992131784 M266.78455289825797 0.15295181050896645 C265.4975793968141 22.804927430301905, 265.40537923678755 48.367154667526485, 266.7082698009908 65.89156362786889 M266.4008626807481 -0.9575376082211733 C267.79073937900364 17.86066808216274, 267.7113616681844 36.35640787594021, 267.7920630443841 63.675215465947986 M267.12888193103237 64.0087200628864 C179.7537008909761 64.1633193438305, 90.07306638703736 66.03448523108435, 0.4863498144474834 65.06554119447219 M266.3956574888494 63.55323464866733 C189.98239262843802 64.61879273077457, 112.36901183592978 64.54488566797116, 0.5896624367635562 63.716857813626234 M0.05305108055472374 64.82870945706964 C-1.9582010401785372 44.689964113384484, -1.4106535805761813 24.468550465255973, 1.2475733421742916 1.612800095230341 M-0.1080030333250761 64.58557836525142 C0.34446523435413834 46.23550958149135, 0.46224252231419083 29.948106737062332, -0.36361892335116863 -0.24904908426105976" stroke="#000000" stroke-width="1" fill="none"></path></g><g transform="translate(739.7619047619048 849.3571428571427) rotate(0 111.5 12)"><text x="0" y="19" font-family="Cascadia, Segoe UI Emoji" font-size="20px" fill="#000000" text-anchor="start" style="white-space: pre;" direction="ltr">AuthRedirectService</text></g><g><g transform="translate(911.7189989285094 530.1974191345878) rotate(0 -180.21663514822328 61.09306295209851)"><path d="M-0.3698070488870143 0.24394317492842665 C-60.54844777582391 20.533514149301705, -301.4046609549872 101.29154653903574, -361.63715376322295 121.6873011376766 M1.6369055211078378 -0.6735906035732477 C-58.56445468711845 19.76389905081226, -301.4502858794849 102.07081611157872, -362.07017581755434 122.85971650777026" stroke="#000000" stroke-width="1" fill="none"></path></g><g transform="translate(911.7189989285094 530.1974191345878) rotate(0 -180.21663514822328 61.09306295209851)"><path d="M-338.28647571920976 105.69285304126132 C-345.77152543412706 110.16294617384263, -350.13143863433294 113.06637498888985, -362.1123699716679 122.10570329350992 M-339.55037509582564 104.00604441602516 C-343.75484760063546 109.38943399114359, -349.82982916007956 113.41720554355267, -361.6512565094433 122.51363833730682" stroke="#000000" stroke-width="1" fill="none"></path></g><g transform="translate(911.7189989285094 530.1974191345878) rotate(0 -180.21663514822328 61.09306295209851)"><path d="M-331.670083122207 125.11818061605825 C-340.8202441305489 124.65539559663091, -346.85338269820784 122.64633616484093, -362.1123699716679 122.10570329350992 M-332.9339824988229 123.4313719908221 C-338.71226239580267 123.88379219177023, -346.45064952923997 123.02790581565814, -361.6512565094433 122.51363833730682" stroke="#000000" stroke-width="1" fill="none"></path></g></g><g transform="translate(326.3650793650795 662.4285714285714) rotate(0 133.5 32)"><path d="M1.03904715385119 1.1477619508025974 C58.92422053677085 -1.9305061604052534, 120.8083128855749 -1.6964762200330723, 266.6312179019378 1.4504100411574214 M0.5356204980709478 0.3261391827225044 C67.84601209483837 -1.2793588749230382, 134.31771648949857 -1.4994977545093058, 267.05515018712805 -0.7173123414366885 M266.63641903176904 1.5830825231969357 C267.6361088456213 17.39231467470527, 267.28497824087736 33.82639042362571, 265.09950670972466 65.28838511928916 M267.6100425552577 -0.6358151566237211 C267.05367753379045 17.165204464271667, 265.60076860062776 35.839990030601626, 266.21670882217586 63.75155525095761 M267.242286155037 64.199927390489 C203.73150006942703 64.15111845951522, 142.67325168895925 64.05016127386811, 1.2821621668260246 64.36597405903595 M267.7699430687839 63.228910067427954 C211.36929835855338 64.14840390529336, 154.6183226937742 64.1907835728476, -0.6505558834340169 63.67201315656527 M0.31197068467736244 63.13692006096244 C-1.0976162181794642 44.660542991012335, 0.9636295808851719 28.40739819034934, 0.03562507405877113 -0.34205010905861855 M-0.4307838845998049 63.63110648281872 C-1.0476444900780915 42.685159717872736, -0.9571688712388277 19.95636268742382, -0.6431827116757631 0.9273246992379427" stroke="#000000" stroke-width="1" fill="none"></path></g><g><g transform="translate(506.21687761897147 653.3571428571428) rotate(0 3.487811673218445 -85.95225629497855)"><path d="M0.6372424878180027 -0.4678705371916294 C1.6487464709021373 -28.88695579117963, 4.208775431383511 -143.04041522773252, 5.054830653481318 -171.43664205276545 M-0.4873439354170115 -1.7591065145563336 C1.0142443497944844 -29.968843778687138, 6.550093663008994 -142.36805643406964, 7.462967281853913 -170.353453879246" stroke="#000000" stroke-width="1" fill="none"></path></g><g transform="translate(506.21687761897147 653.3571428571428) rotate(0 3.487811673218445 -85.95225629497855)"><path d="M15.743799384699347 -142.71891267839075 C13.34891131978054 -147.73552542543783, 12.382178685887807 -153.93248973396652, 5.805152872270106 -170.71281889919328 M16.452672546745422 -142.70250755231083 C13.538395568710733 -152.66874269112728, 10.125053540344743 -161.806485361693, 7.9931949858275635 -169.73195536714184" stroke="#000000" stroke-width="1" fill="none"></path></g><g transform="translate(506.21687761897147 653.3571428571428) rotate(0 3.487811673218445 -85.95225629497855)"><path d="M-4.759092320209581 -143.5857656778179 C-2.742598659659492 -148.52446317738662, 0.7087116953732253 -154.53463462412444, 5.805152872270106 -170.71281889919328 M-4.0502191581635065 -143.569360551738 C0.31167370754580936 -153.30776822422746, 4.167757128265371 -162.1381628706536, 7.9931949858275635 -169.73195536714184" stroke="#000000" stroke-width="1" fill="none"></path></g></g><g transform="translate(394.3650793650795 680.9285714285714) rotate(0 64.5 12)"><text x="0" y="19" font-family="Cascadia, Segoe UI Emoji" font-size="20px" fill="#000000" text-anchor="start" style="white-space: pre;" direction="ltr">AuthService</text></g><g><g transform="translate(1065.957832301593 531.2857142857142) rotate(0 163.02122877694717 160.66610860011335)"><path d="M-0.1414656557142735 -0.688666983693838 C54.30953699217661 52.91197898646903, 273.02786974541465 266.9596290568864, 327.7173314081981 320.41538290668797 M-1.6748738543037325 1.5641789045277985 C52.50827003174013 55.48453175722709, 271.82081317691683 268.7420110999743, 326.64120175480946 322.02088418392054" stroke="#000000" stroke-width="1" fill="none"></path></g><g transform="translate(1065.957832301593 531.2857142857142) rotate(0 163.02122877694717 160.66610860011335)"><path d="M298.1305094101006 309.3150427199449 C309.88750842010717 314.53688910307545, 319.786549617631 318.21692969414414, 326.2250131236027 320.1794672028493 M299.4494970981503 310.1697325657602 C309.74704532645103 313.1415802080562, 317.5424881475365 318.70413089122894, 326.6617661786835 322.6861890067678" stroke="#000000" stroke-width="1" fill="none"></path></g><g transform="translate(1065.957832301593 531.2857142857142) rotate(0 163.02122877694717 160.66610860011335)"><path d="M312.4380046332599 294.603972642445 C318.55127238977025 305.46206768035813, 322.9522823550373 314.7952237528209, 326.2250131236027 320.1794672028493 M313.75699232130955 295.4586624882603 C319.0695744498661 303.54100290668936, 321.88536029550215 314.22367291089944, 326.6617661786835 322.6861890067678" stroke="#000000" stroke-width="1" fill="none"></path></g></g><g><g transform="translate(909.1428571428569 474.1243183919351) rotate(0 -83.0120749125011 -12.235424289171661)"><path d="M0.14372225180268283 -0.7831832326948642 C-27.492972541671428 -5.057139661738676, -137.4812768649133 -22.013449429618326, -165.09496827093622 -25.89089020314456 M-1.2399622953403742 1.4200416248012333 C-29.11894314420055 -2.704094345055548, -138.59756608794535 -20.260534410774845, -166.1678720768049 -24.810503291169343" stroke="#000000" stroke-width="1" fill="none"></path></g><g transform="translate(909.1428571428569 474.1243183919351) rotate(0 -83.0120749125011 -12.235424289171661)"><path d="M-138.00364062952914 -30.823497066884542 C-148.78262317000943 -29.502881746148596, -156.33265721756828 -26.042303023884063, -167.5656050759807 -26.78010650558227 M-136.3019311709247 -29.606220771237517 C-147.7611065202285 -28.33503573952334, -158.36347653679434 -26.31142867247561, -166.2872821315631 -24.85325652381235" stroke="#000000" stroke-width="1" fill="none"></path></g><g transform="translate(909.1428571428569 474.1243183919351) rotate(0 -83.0120749125011 -12.235424289171661)"><path d="M-141.2879100167504 -10.566804913968738 C-150.84141163983605 -16.55131101680796, -157.20768539051153 -20.391920196519784, -167.5656050759807 -26.78010650558227 M-139.58620055814595 -9.349528618321713 C-149.76194020037536 -15.44563785829992, -159.16830458891107 -20.798745355053228, -166.2872821315631 -24.85325652381235" stroke="#000000" stroke-width="1" fill="none"></path></g></g><g><g transform="translate(1368.9075278500359 495.19397243194703) rotate(0 -90.76781985588894 -3.1073236143628264)"><path d="M0.9680549181997777 0.9789564214646818 C-29.263616316444423 -0.18156442215175916, -151.96646232965958 -5.89488166521646, -182.50369462997762 -7.193603650190323 M0.01714502091519532 0.44730459739454087 C-29.734627324962243 -0.5539565856798887, -149.65473604284784 -5.025290975033938, -180.2088943197403 -6.047828183880463" stroke="#000000" stroke-width="1" fill="none"></path></g><g transform="translate(1368.9075278500359 495.19397243194703) rotate(0 -90.76781985588894 -3.1073236143628264)"><path d="M-150.0394652011518 -16.623720084695826 C-158.84504056915947 -14.062697381501167, -164.12420653083564 -10.156487820846001, -181.80421123271918 -5.590534587761774 M-151.003765049455 -14.341697528405795 C-157.14993176252034 -13.718899639178398, -163.763758328508 -10.96499103199497, -179.85937424926198 -6.364506124889865" stroke="#000000" stroke-width="1" fill="none"></path></g><g transform="translate(1368.9075278500359 495.19397243194703) rotate(0 -90.76781985588894 -3.1073236143628264)"><path d="M-150.7692410975631 3.8845082524096552 C-159.38422175859412 2.1904537351444167, -164.51218224262365 1.8474732682205568, -181.80421123271918 -5.590534587761774 M-151.7335409458663 6.166530808699686 C-157.70773270189375 2.665550332350376, -164.17490429754443 1.298147680512348, -179.85937424926198 -6.364506124889865" stroke="#000000" stroke-width="1" fill="none"></path></g></g><g transform="translate(915.2222222222215 457.97619047619025) rotate(0 133.5 32)"><path d="M-0.5780959573661179 0.4934019801259845 C86.73428138943066 -0.32031759718125574, 172.7139784405884 -0.436791520743401, 267.9482839162149 -0.2985715900721699 M-0.23335048548208026 0.7228512945027664 C94.83449324254678 2.2119138327063226, 190.5639378976676 2.2376099998821397, 266.5218742425368 0.19211669500482825 M265.13183591142297 1.8512802980840206 C266.002737044245 19.092324735969306, 267.54411589995027 39.1864842556417, 267.95213947072625 64.72439142689109 M266.9767960142344 -0.07959689013659954 C266.44246781222523 17.071688233688477, 266.6871640121192 33.11736918576062, 266.6489339303225 63.68975059874356 M268.2981236765467 65.46477138728063 C186.97059195116853 60.69584185300813, 110.80710578190912 61.95531165694232, 0.5397240345332771 65.33334775582149 M267.6004895215041 64.49752452252487 C202.83520216983752 63.80610876314853, 139.04127313657156 62.86626388508204, 0.6826212447713778 63.936986359174995 M0.4565117098391056 64.27674564346671 C-1.4585107551515102 50.35092017874122, -2.104853151887655 31.42347346767783, 0.23708901181817055 0.5236894749104977 M-0.04594113118946552 64.37565635330975 C-0.6447405946999788 48.2447562802583, 0.6035452353209257 32.203198324516414, 0.4377469252794981 0.48183016665279865" stroke="#000000" stroke-width="1" fill="none"></path></g><g transform="translate(925.2222222222215 476.47619047619025) rotate(0 123 12)"><text x="0" y="19" font-family="Cascadia, Segoe UI Emoji" font-size="20px" fill="#000000" text-anchor="start" style="white-space: pre;" direction="ltr">AuthHttpHeaderService</text></g><g><g transform="translate(607.6814125056311 689.9966919735409) rotate(0 304.38981904147977 97.57489829155153)"><path d="M-0.0015120707452296323 -0.9891669429838656 C101.51774193826238 31.593598105319153, 508.3795626284142 163.23011739257876, 610.2410827201854 196.13896352608685 M-1.4614446372259409 1.1059164666105064 C99.79452003194126 33.25895807837912, 507.20083211059284 161.97929163643312, 609.2523472501122 194.20908761793746" stroke="#000000" stroke-width="1" fill="none"></path></g><g transform="translate(607.6814125056311 689.9966919735409) rotate(0 304.38981904147977 97.57489829155153)"><path d="M577.6315518491318 195.3714998091172 C591.6879345184475 196.40746463697866, 604.032454491567 194.37282703569105, 608.1277593305491 193.2256223897077 M578.8808600869378 194.72944694073607 C587.0749677247153 195.5997945818999, 594.6182869218616 195.40822183010377, 609.7911196375422 193.2910012549348" stroke="#000000" stroke-width="1" fill="none"></path></g><g transform="translate(607.6814125056311 689.9966919735409) rotate(0 304.38981904147977 97.57489829155153)"><path d="M583.8134948064659 175.80357749584886 C595.5401988793425 184.54524483306923, 605.4502910094942 190.2163876372663, 608.1277593305491 193.2256223897077 M585.0628030442718 175.1615246274677 C591.6759478838526 181.03029311041246, 597.6274266231312 185.8774291641896, 609.7911196375422 193.2910012549348" stroke="#000000" stroke-width="1" fill="none"></path></g></g><g transform="translate(1225.1428571428567 853.7857142857142) rotate(0 133.5 32)"><path d="M-0.4440308589965015 -1.556695420127043 C92.77724055282701 -0.08468156974363866, 184.94084479871728 -0.22037418357925953, 266.5754217288101 0.940671392565313 M0.5571654333396747 -0.23217846055913716 C100.30112396075383 0.5366745842711697, 199.65371337037777 1.1187421275056608, 267.58263522078175 -0.5255728446740224 M266.2395600937307 0.8052844740450382 C267.49679286822675 26.60438114181161, 266.39258022651074 49.786751887947325, 268.7014583013952 63.09366664662957 M266.2772323358804 -0.717914717271924 C266.3100245691091 13.770827777311206, 267.0855605698377 27.69375720731914, 267.72731445915997 64.19625811092556 M266.1913293709548 65.19683335841471 C197.77012942096772 65.07971492244435, 130.4996910501646 64.05412536070224, -0.07497297222615779 64.84591047113759 M267.22814415098884 64.2176643827063 C202.79425661385514 62.480246563244705, 137.6669407941851 63.440721034582836, 0.03222076100476533 63.22731286102733 M-1.7487700320780277 65.12178156152368 C1.7207480727136135 38.356522164493796, -1.3455235899984836 13.098804423958057, 1.9285136125981808 -0.7194062732160091 M-0.889168931171298 64.92652343027294 C0.5356335879117251 39.59075594656169, 1.2721185327321292 16.328213484212753, 0.33047877438366413 0.5409182738512754" stroke="#000000" stroke-width="1" fill="none"></path></g><g><g transform="translate(1198.2811056591197 1136.071428571428) rotate(0 74.60851795643782 -107.53393208273587)"><path d="M-0.9887817822396755 -0.6854104913771152 C24.028499848048604 -36.82766320112904, 125.06519088050086 -180.8901491196732, 150.20581769511531 -216.63700922078255 M0.6929690527450294 1.5691450553108006 C25.626433141136012 -34.44967257886005, 124.97145167887878 -179.0251506192795, 149.75661186750474 -215.47151381047243" stroke="#000000" stroke-width="1" fill="none"></path></g><g transform="translate(1198.2811056591197 1136.071428571428) rotate(0 74.60851795643782 -107.53393208273587)"><path d="M141.16358790188653 -184.8278293378802 C143.37139024521164 -194.3165082094224, 148.1207325356063 -204.084143125722, 151.46339990447703 -215.10618112133616 M141.84070460326595 -185.7275370519759 C142.98254991383988 -193.24600929434757, 146.39099159368445 -201.16645950767122, 148.9638990430856 -214.51226134681875" stroke="#000000" stroke-width="1" fill="none"></path></g><g transform="translate(1198.2811056591197 1136.071428571428) rotate(0 74.60851795643782 -107.53393208273587)"><path d="M124.22726355245518 -196.41579378020995 C131.6810097882515 -202.1899093585229, 141.65538867232803 -208.38253372305005, 151.46339990447703 -215.10618112133616 M124.9043802538346 -197.31550149430566 C130.3401015404856 -201.96373181322414, 137.9608080327533 -207.00211778043675, 148.9638990430856 -214.51226134681875" stroke="#000000" stroke-width="1" fill="none"></path></g></g><g><g transform="translate(1451.0692721210737 743.9999999999998) rotate(0 -19.251072600533575 52.762088917087624)"><path d="M0.9884108819067479 -0.4183194793760776 C-5.674152649674671 17.41084759036509, -32.38159888701566 88.00712504882652, -39.01522641395841 105.80617203189777 M0.048187865568324995 -1.683541151387617 C-6.777624531915516 16.429619942451467, -32.982465786701596 88.95101030909743, -39.49055608297389 107.20771898556286" stroke="#000000" stroke-width="1" fill="none"></path></g><g transform="translate(1451.0692721210737 743.9999999999998) rotate(0 -19.251072600533575 52.762088917087624)"><path d="M-40.3053700143546 78.70863460272429 C-40.28704076717265 90.44441872016681, -39.292694981272376 98.43101519958219, -37.822323787311724 106.44886289391452 M-38.94753018227221 76.99516905180988 C-38.450709422117626 88.22783691929571, -39.792578921734844 99.52243124881507, -40.01817099126678 106.70848077948922" stroke="#000000" stroke-width="1" fill="none"></path></g><g transform="translate(1451.0692721210737 743.9999999999998) rotate(0 -19.251072600533575 52.762088917087624)"><path d="M-20.994373285774877 85.6516460339854 C-28.246845178474373 94.90805625108408, -34.590927221914015 100.25621883593067, -37.822323787311724 106.44886289391452 M-19.636533453692486 83.938180483071 C-26.20323658833788 92.75981757307547, -34.55268062231081 101.53493189950207, -40.01817099126678 106.70848077948922" stroke="#000000" stroke-width="1" fill="none"></path></g></g><g transform="translate(1259.1428571428567 872.2857142857142) rotate(0 105.5 12)"><text x="0" y="19" font-family="Cascadia, Segoe UI Emoji" font-size="20px" fill="#000000" text-anchor="start" style="white-space: pre;" direction="ltr">AuthStorageService</text></g><g transform="translate(240.15079365079373 504.9285714285714) rotate(0 218.50000000000006 350)"><path d="M167.47465675176957 9.113885643422577 C182.1571324259019 -2.2621876550497007, 201.34490545410773 -0.4271752762179327, 217.97664231844325 -0.5694647588263138 C234.60837918277878 -0.7117542414346948, 251.26901854340446 2.2281046082801295, 267.26507793778273 8.260148747772291 C283.261137332161 14.292192887264452, 299.1385201036655 23.7907409444093, 313.95299868471284 35.62280007812666 C328.7674772657602 47.45485921184402, 343.1370727705845 62.31709649931348, 356.1519494240669 79.25250355007643 C369.16682607754933 96.18791060083937, 381.6627467232033 115.9950583003739, 392.0422586056075 137.23524238270434 C402.4217704880117 158.4754264650348, 411.5564779879949 182.48088436831986, 418.42902071849204 206.69360804405912 C425.30156344898916 230.90633171979837, 430.31187235173377 256.2787048344247, 433.2775149885902 282.51158443713985 C436.24315762544666 308.744464039855, 436.9274291537224 337.4880521258301, 436.22287653963065 364.0908856603503 C435.5183239255389 390.6937191948705, 433.3968761770797 416.57629145722115, 429.0501993040395 442.12858564426097 C424.70352243099927 467.6808798313008, 418.16815191314447 493.83150465421284, 410.1428153013892 517.4046507825891 C402.1174786896339 540.9777969109654, 391.9032312693257 563.4839838062845, 380.898179633508 583.5674624145186 C369.89312799769027 603.6509410227526, 357.53937745995495 622.4843883767815, 344.11250548648286 637.9055224319931 C330.68563351301077 653.3266564872047, 315.9874253055711 666.2604822969932, 300.33694779267563 676.094266745788 C284.68647027978017 685.9280511945827, 266.80427004549614 693.1088348722423, 250.20964040911022 696.9082291247616 C233.61501077272433 700.707623377281, 217.17810131899185 701.2128809984537, 200.76916997436027 698.8906322609043 C184.36023862972868 696.568383523355, 167.56601189998503 691.2808700439628, 151.75605234132075 682.9747366994658 C135.94609278265648 674.6686033549688, 120.32436737885828 662.7997091611214, 105.90941262237465 649.0538321939225 C91.49445786589101 635.3079552267236, 77.33937288420927 618.9033946553998, 65.26632380241892 600.4994748962723 C53.19327472062859 582.0955551371449, 42.331929172925875 561.1908153949986, 33.47111813163261 538.630313639158 C24.61030709033934 516.0698118833174, 17.510466873966493 490.4970591358003, 12.101457554659333 465.1364643612288 C6.692448235352174 439.7758695866572, 2.911339046615595 412.95814750799536, 1.0170622157896503 386.4667449917288 C-0.8772146150362943 359.9753424754622, -1.2347537819950294 332.71123794903923, 0.7357965697036661 306.18804926362924 C2.7063469214023614 279.66486057821925, 6.893456581692452 252.24064923572496, 12.840364325981824 227.32761287926877 C18.787272070271197 202.41457652281258, 27.136006694465777 178.71450402564938, 36.417243035439895 156.70983112489216 C45.698479376414014 134.70515822413495, 56.47904163965269 113.6572785503472, 68.52778237182653 95.29957547472551 C80.57652310400037 76.94187239910383, 94.21340119407171 59.97008001205727, 108.70968742848292 46.56361267116205 C123.20597366289414 33.15714533026683, 143.40224337528554 21.904165384194823, 155.5054997782938 14.860771429354202 C167.60875618130206 7.817377474513582, 174.58804887629324 5.274771034323417, 181.32922584653255 4.30324894211833 C188.07040281677186 3.331726849913243, 195.28780969587666 3.038194836982484, 195.95256159972968 9.03163887612368 M309.45953062433193 29.508757480254246 C325.14522257324643 34.67720498720098, 338.6127680265207 56.07673954492941, 351.4207315239477 72.30252890249665 C364.22869502137473 88.52831826006388, 375.94437277251393 106.41369605604119, 386.3073116088938 126.86349362565767 C396.6702504452737 147.31329119527416, 406.1076909808027 170.8782559519623, 413.59836454222716 195.00131432019555 C421.0890381036516 219.1243726884288, 427.414066493098 245.52319792994265, 431.25135297744043 271.60184383505714 C435.08863946178286 297.6804897401716, 436.7713789843018 325.03772015312313, 436.62208344828167 351.4731897508824 C436.47278791226154 377.90865934864166, 434.0850336366051 404.1106364795786, 430.3555797613195 430.2146614216128 C426.62612588603395 456.318686363647, 421.6279074047866 483.8090509929539, 414.2453601965684 508.0973394030877 C406.86281298835024 532.3856278132215, 396.87786505227797 555.4607357636652, 386.06029651201067 575.9443918824154 C375.24272797174336 596.4280480011656, 362.82317498170045 615.0282407220039, 349.3399489549647 630.999276115589 C335.856722928229 646.9703115091742, 320.2378542563933 661.4632022233704, 305.16094035159625 671.7706042439263 C290.0840264467992 682.0780062644822, 274.93056414677613 688.0303651596563, 258.8784655261826 692.8436882389242 C242.82636690558905 697.6570113181921, 225.47207776065878 701.5924368242754, 208.84834862803493 700.6505427195339 C192.22461949541108 699.7086486147923, 175.40747570243096 694.8489642905797, 159.13609073043955 687.192323610475 C142.86470575844814 679.5356829303703, 125.9600341984761 668.0248610413122, 111.22003879608644 654.7106986389053 C96.48004339369679 641.3965362364985, 82.73420992386484 625.0068741364662, 70.6961183161016 607.3073491960338 C58.65802670833837 589.6078242556014, 48.425173585681215 570.4290392152518, 38.99148914950703 548.5135489963109 C29.55780471333285 526.5980587773699, 20.041997629619086 500.7108711927418, 14.094011699056523 475.8144078823883 C8.14602576849396 450.9179445720348, 5.65088059233446 425.5545406663382, 3.3035735661316608 399.13476913418987 C0.9562665399288619 372.71499760204154, -1.3562701104541948 343.909457328288, 0.010169541839729845 317.2957786894982 C1.3766091941336545 290.6821000507084, 6.036082363820128 264.4144071413338, 11.502211479895209 239.45269730145117 C16.96834059597029 214.49098746156852, 24.296788786014694 190.32857832991994, 32.806944238290214 167.52551965020237 C41.31709969056573 144.7224609704848, 50.710206932579894 121.96339946130243, 62.56314419354834 102.63434522314571 C74.41608145451679 83.305290984989, 89.7699268691447 65.62706989917884, 103.92456780410089 51.55119422126211 C118.07920873905708 37.475318543345374, 132.1013827676613 26.59299098302239, 147.4909898032855 18.179091155645324 C162.88059683890967 9.765191328268259, 179.40917634215754 3.602040990874078, 196.26221001784603 1.067795256999716 C213.11524369353452 -1.466450476874646, 231.94362876434943 -0.5931547338276459, 248.60919185741648 2.9736167523991526 C265.2747549504835 6.540388238625951, 286.4898105992813 17.794277506426834, 296.25558857624833 22.468424174360507 C306.02136655321533 27.14257084229418, 305.3996989676883 28.625924562229596, 307.20385971921866 31.0184967600012 C309.008020470749 33.411068957772805, 308.5322059962043 31.61161316521689, 307.08055308543044 36.82385736099013" stroke="#000000" stroke-width="1" fill="none"></path></g><g><g transform="translate(595.463383271221 401.4657914846071) rotate(0 1.5931516648115576 -29.627220833078184)"><path d="M0.5025663457810878 0.1800771988928318 C0.9505983403972076 -9.493527822285014, 3.3020100283877487 -47.80400537445703, 3.879028381646447 -57.5770923597462 M-0.6927250520233066 -0.7709862170275301 C-0.5325966038001044 -10.846679170732441, 2.1464511505675996 -50.0065966308725, 2.7768784898583068 -59.43451886504921" stroke="#000000" stroke-width="1" fill="none"></path></g><g transform="translate(595.463383271221 401.4657914846071) rotate(0 1.5931516648115576 -29.627220833078184)"><path d="M11.189102779577018 -31.96072585988551 C8.383822012317488 -42.94785707645789, 3.676257831057442 -52.37743614699307, 1.2338440220121516 -59.25131626680526 M11.301024170095564 -31.403284139146503 C7.858326896339925 -39.8937844482064, 7.336214292901804 -46.056522633881826, 2.8265144831750764 -59.455485471263856" stroke="#000000" stroke-width="1" fill="none"></path></g><g transform="translate(595.463383271221 401.4657914846071) rotate(0 1.5931516648115576 -29.627220833078184)"><path d="M-8.683045620565364 -33.28847367849065 C-3.5495021311968147 -43.82874528693904, -0.32338196422228016 -52.72823914098123, 1.2338440220121516 -59.25131626680526 M-8.571124230046818 -32.73103195775164 C-6.677325772560682 -40.78915201460592, -1.8611634442604732 -46.5952159870554, 2.8265144831750764 -59.455485471263856" stroke="#000000" stroke-width="1" fill="none"></path></g></g><g transform="translate(439.99999999999966 10) rotate(0 161.4285714285714 162.1428571428571)"><path d="M161.43444812859747 -0.03748377188651468 C215.9496497719868 55.48481368067517, 270.4653364681539 109.3105366240008, 321.86968189596854 164.47166757775202 M162.30471180718914 -0.5373106532188361 C208.63371028806216 44.338678756295245, 252.94071526849663 89.62284508683423, 322.7500076447981 162.5480709809678 M323.06707049896073 161.83341877684506 C270.1008044662992 212.85553663097298, 220.39614079155942 264.57285551503486, 161.51303364214587 324.157296324694 M323.4071582440024 162.43688436599567 C286.5530489203125 200.18497763724014, 250.47705830299827 234.78685093890238, 161.2519961730047 323.5550041548141 M162.49448879353167 325.75681695489305 C130.07803765864932 290.81728202265055, 95.6337203032055 257.1520333242505, -1.6653977019779722 162.1575704714373 M162.05662042520837 324.91490798391743 C110.12721157228187 271.22131236601376, 58.336794963052604 220.27237494361083, 0.249155188131626 162.21762190521065 M0.4014364433615683 164.4354928873994 C41.36041028456165 122.17911941168957, 79.51513759419369 82.84570812073112, 162.96907827113077 -0.9228182641656809 M0.8451728151170215 163.64479419861405 C43.100802265227415 120.88498803638399, 86.58107376484536 78.86522005560545, 161.73238253421258 -0.6273146119240209" stroke="#000000" stroke-width="1" fill="none"></path></g><g transform="translate(494.2857142857139 159.35714285714266) rotate(0 111.5 12)"><text x="0" y="19" font-family="Cascadia, Segoe UI Emoji" font-size="20px" fill="#000000" text-anchor="start" style="white-space: pre;" direction="ltr">angular-oauth2-oidc</text></g><g><g transform="translate(1214.7857142857147 1151.2101391549706) rotate(0 75.7863093657603 -0.015601741780415068)"><path d="M1.1723436154425142 0.5986610256135463 C26.492458268479993 0.5294051662913488, 126.15079099275911 1.0136483181672928, 151.24393344731027 0.7693993253001736 M0.32868528421036913 -0.13264588127844035 C25.512051811396695 -0.02068470167117535, 124.95740224558669 -0.9045664422088475, 150.06823086421895 -0.8699890764596148" stroke="#000000" stroke-width="1" fill="none"></path></g><g transform="translate(1214.7857142857147 1151.2101391549706) rotate(0 75.7863093657603 -0.015601741780415068)"><path d="M122.91931917788406 8.788253326474333 C130.2096074214284 6.796539571926717, 134.33919171418646 2.655576988057942, 150.2060049479823 -2.377191735261886 M122.01582614043673 10.275842706246877 C133.92591240617486 5.6119510914232755, 143.79031209567265 1.6058372357110162, 150.11326960716355 -0.8048283977600021" stroke="#000000" stroke-width="1" fill="none"></path></g><g transform="translate(1214.7857142857147 1151.2101391549706) rotate(0 75.7863093657603 -0.015601741780415068)"><path d="M122.83163672510003 -11.732767948630695 C130.34591862764267 -8.726339678316116, 134.49686269857406 -7.868303620958465, 150.2060049479823 -2.377191735261886 M121.92814368765269 -10.245178568858151 C133.79840442438916 -6.88575725127288, 143.69708995627482 -2.867682928658172, 150.11326960716355 -0.8048283977600021" stroke="#000000" stroke-width="1" fill="none"></path></g></g><g transform="translate(1379.9285714285713 1019.8571428571431) rotate(0 130 131.5)"><path d="M132.93511923775077 -1.8592745326459408 C174.20276407863946 45.098161070179195, 219.9774451030791 91.14382816491648, 261.1244382523 133.75887677446008 M130.36602102406323 -0.7991474438458681 C162.0568814828619 31.56804735356942, 191.48601930119096 62.64613225677982, 260.9900819528848 132.2459477018565 M258.6528434418142 131.40577981248498 C218.73735077267514 173.7442318239622, 176.78192459361628 213.85002738231793, 130.66903242096305 262.86399230733514 M260.75269667990506 131.4214356970042 C228.96340091006832 164.3229833889939, 198.25160380547868 194.6289896367304, 130.07626818306744 263.54146484844387 M131.85603746399283 264.7844243980944 C104.05751127908007 235.11165275463836, 76.18123723967001 208.15192815942692, 1.5744626186788082 132.88506624475121 M130.7183232177049 262.1800418328494 C98.17551130188627 229.97488288251682, 64.92877528706563 196.1126703786291, 0.9531362522393465 132.8400318454951 M0.24916907772421837 131.64055082574487 C30.4851205887273 100.85981032887474, 58.71821348890663 74.32425063217059, 132.7912903688848 -0.6226035617291927 M-0.16648168675601482 131.76249860040843 C28.493041645623745 103.3744607966952, 57.39625533230603 73.59732012642547, 131.97450696118176 0.425523204728961" stroke="#000000" stroke-width="1" fill="none"></path></g><g transform="translate(1424.6428571428569 1135.9285714285702) rotate(0 88 12)"><text x="0" y="19" font-family="Cascadia, Segoe UI Emoji" font-size="20px" fill="#000000" text-anchor="start" style="white-space: pre;" direction="ltr">Browser storage</text></g><g transform="translate(944 1125.6428571428567) rotate(0 133.5 32)"><path d="M-0.43644248040412364 -1.0285299874533802 C91.580236838355 1.9966998899513464, 185.68234468305712 2.9909387247296553, 268.5424878658606 1.0712961579948275 M0.7760666452805444 -0.0035304628383800384 C82.69364341787384 -0.04967730463825697, 166.01719151223685 -0.08888831372739309, 266.49841039191364 -0.434914336443679 M265.48958978429437 -1.011522326618433 C267.9718006171286 20.340371491760017, 265.9780194081366 43.457367696613076, 267.07550689950585 64.79354604706168 M267.5661867093295 0.39864604361355305 C266.4289996587485 24.156326125934722, 268.34596949450673 47.44322869665921, 266.97584865801036 64.19057081826031 M268.57202426591715 62.42616248785924 C211.6089041509924 65.00632789345767, 157.54356792001843 65.63767353092763, -0.23940556337350308 64.10859439763239 M266.92556775870895 64.145387839552 C164.58078319672174 63.531241846652954, 60.43825674468786 63.41900293441135, 0.3234515665084287 64.29245652836431 M-0.9688993953168392 62.2572886608541 C1.1516431345045568 44.136344101279974, -1.0701425300538538 18.511703100055456, -1.7935581468045712 -0.8453044034540653 M-0.5962789822369814 63.01724843867123 C-0.10649800904095175 43.625921272113914, -0.6013438165932894 22.728294133022423, 0.0037172865122556686 -0.5628627669066191" stroke="#000000" stroke-width="1" fill="none"></path></g><g transform="translate(955 1146.1428571428564) rotate(0 126.5 9.5)"><text x="0" y="15" font-family="Cascadia, Segoe UI Emoji" font-size="16px" fill="#000000" text-anchor="start" style="white-space: pre;" direction="ltr">AuthStatePersistenceService</text></g><g transform="translate(10 439.6428571428566) rotate(0 133.5 32)"><path d="M-0.7133454103022814 -1.8963007014244795 L266.6688415389508 -1.350073305889964 L265.61145138554275 65.36983153410256 L-0.862017335370183 65.56120434589684" stroke="none" stroke-width="0" fill="#fab005"></path><path d="M-0.18197563882391898 0.6513079306060359 C70.0432577810193 2.1549621853332526, 143.2473455297398 2.196822842812968, 267.20299493895743 -1.3570103861638023 M0.09807526001472697 -0.3293142291145943 C83.90914497268491 1.6521438552982133, 166.73698200283786 2.2761877126572174, 267.6780314527872 0.6832862903012848 M266.36322269029915 -1.877516569569707 C265.53441213972866 25.26305183582008, 265.74449031956493 45.26683854870498, 266.2287477571517 62.88298547081649 M267.2191789140925 -0.0146378418430686 C266.45063209500165 20.37575558219105, 267.592646628283 41.652609310485424, 267.0261124065146 64.47197486553341 M268.5228316851813 65.35907218669267 C166.67128008165724 63.79705717317244, 70.90144925085811 64.37569171332123, -1.4603613066754146 63.695487071055034 M267.2361078358928 63.943079182439405 C169.5866484896581 65.71967007397934, 70.94139872882609 66.52333971898331, -0.2684491988447882 63.737821763227664 M1.2325031477957964 62.15944725088775 C-1.2821193050593138 48.626507214829324, -0.6269308041781188 30.167112634703514, -0.8986720722168684 0.2004020195454359 M0.5994028439745307 63.77468149457127 C-0.8929022136703134 39.29977816138417, -1.118431854583323 14.419648120738565, 0.5009694388136268 0.2957809725776315" stroke="#000000" stroke-width="1" fill="none"></path></g><g transform="translate(37 460.14285714285637) rotate(0 105.5 12)"><text x="0" y="19" font-family="Cascadia, Segoe UI Emoji" font-size="20px" fill="#000000" text-anchor="start" style="white-space: pre;" direction="ltr">CSAgentAuthService</text></g><g transform="translate(1228 851.6428571428568) rotate(8.61416195087569 133.5 32)"><path d="M-0.22740829177200794 -1.225652126595378 L267.5461971145123 1.4809146244078875 L268.2298347931355 65.35529944486916 L1.6595032792538404 65.88279286213219" stroke="none" stroke-width="0" fill="#fab005"></path><path d="M1.0856771957601263 0.6462845370620295 C65.37279877801181 2.1865350707864617, 131.79658870320324 1.1404919732368801, 267.9537599737856 -0.8320589947956993 M0.6267652530132316 -0.30706379829718095 C97.36697453420759 1.3687840813157992, 196.78445786335342 0.11915176423632678, 267.26231744527297 0.6764999728032686 M268.80926189012825 -1.1193016190081835 C265.2978396452218 13.614754335209728, 267.84989780552684 25.374137971922757, 267.8882268983871 63.60061204247177 M267.35515284445137 -0.4170454880222678 C268.2135377880558 22.80310867819935, 267.71239436235277 44.96929346118122, 266.63886245992035 63.52980281505734 M267.6458548272849 64.43324466844163 C211.79142875227035 64.03575543014733, 153.39209076404325 65.50031150589182, 0.14192381379730254 62.91472300959111 M267.2628253431003 63.967687195141586 C190.5680920924528 61.76002411459609, 114.91220970767667 62.53605231484907, -0.5410243062124945 64.5417068166769 M1.727492542937398 63.792540131136775 C2.0978401828557254 48.65246508531273, 0.40360241420567033 36.62304487042129, 0.7355385143309832 1.1796252708882093 M-0.3174186358228326 63.88503019604832 C0.2819114383682608 39.16570547614246, 0.6651769634708762 15.163224361278111, -0.18321654293686152 -0.045744105242192745" stroke="#000000" stroke-width="1" fill="none"></path></g><g transform="translate(1238.919469828682 872.2121067039674) rotate(8.61416195087569 123 12)"><text x="0" y="19" font-family="Cascadia, Segoe UI Emoji" font-size="20px" fill="#000000" text-anchor="start" style="white-space: pre;" direction="ltr">AsmAuthStorageService</text></g><g transform="translate(1694 947.6428571428567) rotate(0 133.5 32)"><path d="M1.996410520747304 0.7322469931095839 L265.29460439272225 -1.1513589043170214 L265.75432971306145 62.24957918934524 L1.4370488841086626 63.78668480925262" stroke="none" stroke-width="0" fill="#fab005"></path><path d="M-1.1156399725069954 0.3363815148202613 C94.5534419247216 0.38277903716317485, 193.52713041209148 2.1740036999433165, 265.801168200541 -1.4008444865365788 M0.5413813429501153 -0.6497512549818016 C82.00243072640735 0.04677018108232395, 162.98723729244287 -0.8526202203848802, 267.6022081631236 -0.10155626101915612 M266.8660036306828 -0.13874330930411816 C265.13229414455594 14.449269427731634, 264.98934796087445 28.762229140475394, 268.3512886147946 64.05272475071251 M266.5987500110641 -0.7382159242406487 C266.8717884740606 22.3934216728434, 268.02356237385425 44.31595187094063, 266.05941228661686 64.89048728253692 M266.73469483809316 62.57373919636943 C167.69368077463238 61.32977819974001, 67.97219009340273 63.93849137394289, -1.5735284116524173 65.49067152615578 M266.9859703187757 64.709881620054 C180.7215580047861 61.8761766974738, 95.53079644998616 62.42680290076886, -0.7518442494343421 63.40797475486596 M1.7145633678883314 63.68833133764565 C-0.6059704578667879 47.64414401240647, -1.0926475680619478 30.139967139437793, -0.6868131775408983 -1.1588930767029524 M0.8634054223075509 63.44314020778984 C0.2285070059075952 47.82230589296668, 0.05992835137993102 32.130730878375466, 0.7594944098964334 -0.44533988926559687" stroke="#000000" stroke-width="1" fill="none"></path></g><g transform="translate(1707 968.1428571428564) rotate(0 122 9.5)"><text x="0" y="15" font-family="Cascadia, Segoe UI Emoji" font-size="16px" fill="#000000" text-anchor="start" style="white-space: pre;" direction="ltr">AsmStatePersistenceService</text></g><g transform="translate(914 457.6428571428566) rotate(365.28992447420006 133.5 32)"><path d="M-1.64849060960114 1.7097839433699846 L267.9807304125279 0.8377431351691484 L265.6988777499646 65.52786854095757 L-0.25765943713486195 62.521310063079" stroke="none" stroke-width="0" fill="#fab005"></path><path d="M-0.46185142212579694 -0.9512454343457176 C72.77858463591649 -1.708069254845448, 147.38110310296298 -1.7137256001107886, 265.4348249235831 1.1057358797117753 M0.287296461374452 0.342034206170807 C95.02110242101634 1.4718907272643622, 188.95458074987437 1.159231066012984, 266.70198698462406 -0.5170620122757099 M265.91346016712487 -0.364272715523839 C266.64897901184855 19.142297009751204, 267.3038871324807 39.44097908549011, 268.55683443136513 65.95483642630279 M267.733919470571 -0.9732360681518912 C267.8610525259003 25.30815085563809, 266.8962679335102 51.50032059345395, 267.3894008984789 64.77077047619969 M266.604247043423 62.655861871847726 C190.96689100542 64.28173986521524, 114.91996676089387 65.869150314826, 0.8645706344352438 65.17179882365852 M266.35484101626105 64.04728633625051 C207.5288501595796 64.53256302156689, 148.03624024472174 64.4279644723257, 0.03466140062360987 64.37126470227207 M-0.21341034583747387 62.469196079298854 C-0.8713070487231016 43.774979607388374, 1.757886197641492 25.204296384379262, -1.1042119543999434 -1.4152508396655321 M0.9326229384168983 64.64186032209545 C-0.1616592196002602 42.54597653541714, 0.6447449239715934 21.914891676045954, 0.16143619921058416 0.6867720941081643" stroke="#000000" stroke-width="1" fill="none"></path></g><g transform="translate(938.9829637050324 480.5116390898032) rotate(365.28992447420006 112.5 9.5)"><text x="0" y="15" font-family="Cascadia, Segoe UI Emoji" font-size="16px" fill="#000000" text-anchor="start" style="white-space: pre;" direction="ltr">AsmAuthHttpHeaderService</text></g><g transform="translate(327.99999999999994 663.6428571428567) rotate(367.0538607520326 133.5 32)"><path d="M-1.6863440293818712 -1.5126422923058271 L266.2439081054181 -1.3118433635681868 L267.0089972000569 62.30384394712746 L0.8511717896908522 62.91346016712487" stroke="none" stroke-width="0" fill="#fab005"></path><path d="M0.9887494566068366 1.1866902686103389 C82.68603546303149 2.3456480579320114, 168.26671741942715 2.8926807766177816, 268.18345355350436 0.07803001045866459 M-0.4910101019523598 -0.5689369423611306 C54.625191836160326 1.0660139921126779, 110.0118172874589 1.013491990938967, 266.80859833067603 -0.2927319360433958 M266.1599670369178 -1.2311609406024218 C265.86966081984343 23.989482538029552, 266.75677147038283 49.56650838665664, 266.33783951587975 64.8512710314244 M266.4550001611933 0.31278096232563257 C267.81021036114544 17.913440499641002, 266.8429567059502 35.864915809966625, 267.5435040881857 63.4858408132568 M265.57745937939137 63.638729800136424 C214.45534158816284 66.01912138329396, 158.64281614075296 64.9397263205863, -0.4959246261616513 64.26818175092946 M266.8363266764892 63.65156561077002 C160.65142724472898 63.595754959733576, 54.650490619074574 63.53579184073607, 0.21616356051380856 64.51360716205389 M0.46204778738319874 63.50874477438629 C-1.5544164013117552 43.94713347367942, -0.7593048047274351 18.764731691405174, -0.9681081455200911 0.45170759968459606 M0.7013434758409858 64.55092232022434 C-0.570930759049952 42.75782440695912, 0.2222010990604758 23.617605254985392, 0.26826956775039434 -0.35969512071460485" stroke="#000000" stroke-width="1" fill="none"></path></g><g transform="translate(376.9575209596943 683.8320668931522) rotate(367.0538607520326 82 12)"><text x="0" y="19" font-family="Cascadia, Segoe UI Emoji" font-size="20px" fill="#000000" text-anchor="start" style="white-space: pre;" direction="ltr">AsmAuthService</text></g><g><g transform="translate(650.1274369354901 401.71428571428515) rotate(0 158.1816957475605 -60.93248663344199)"><path d="M0.16484017744660373 1.0002055250108242 C53.02346392154187 -19.672431635685147, 264.59298861918296 -102.3433053335914, 317.5711489538544 -122.86517879189479 M-1.2077574587333948 0.47970948030240823 C51.466725486018284 -19.563452794631825, 263.5562038943943 -101.58875561087332, 316.6865748339122 -121.8225225248609" stroke="#000000" stroke-width="1" fill="none"></path></g><g transform="translate(650.1274369354901 401.71428571428515) rotate(0 158.1816957475605 -60.93248663344199)"><path d="M295.71679733297424 -101.93407906116308 C299.86924347027 -107.78823936350622, 308.67502003173126 -115.30884833093326, 315.4118751198774 -120.85241869848709 M293.93001513718264 -101.69745211758972 C301.50247311990444 -108.17225005480977, 306.64838080684063 -114.25036643476994, 317.4688534741079 -122.45028163690607" stroke="#000000" stroke-width="1" fill="none"></path></g><g transform="translate(650.1274369354901 401.71428571428515) rotate(0 158.1816957475605 -60.93248663344199)"><path d="M288.35827368290717 -121.09059576115955 C295.16234016805515 -120.53837860503613, 306.43285820540143 -121.64250194446142, 315.4118751198774 -120.85241869848709 M286.57149148711557 -120.85396881758619 C296.16504647619945 -121.66118475121377, 303.475023446856 -122.10555836632453, 317.4688534741079 -122.45028163690607" stroke="#000000" stroke-width="1" fill="none"></path></g></g><g transform="translate(462.1428571428569 406.64285714285694) rotate(0 133.5 32)"><path d="M0.8892889253253609 -0.7119560195042759 C67.47156220989183 0.9204307648740961, 134.6371475623935 -1.3406036874142453, 265.44611135027054 0.4103457084939807 M-0.2907259074544981 -0.3421619360783741 C70.46932531314066 1.3081931924237231, 140.66585281732193 1.0571757036745528, 267.4435283014497 -0.6299047205387756 M268.4784744717181 -0.5587756969034672 C265.88206401243804 20.89244292005897, 267.01863100901244 40.252562751621014, 265.1819987036288 63.25942286476493 M267.3648218344897 0.3147726524621248 C267.69238110654055 17.741095923259856, 266.7262447106093 35.29466414339841, 267.6993838381022 63.95724903233349 M268.2716857375036 63.169230235849845 C177.30225764735985 65.52178916728853, 85.94250842065908 63.722726493863725, 1.49965445212771 62.80138985668867 M267.7708282426743 63.38902533322485 C189.08582237916355 65.36488036887862, 111.96075236867249 65.35819436701604, 0.1746574957527563 63.25229108129924 M1.6579094864428043 64.94882008060813 C0.16562616482377046 41.00281524881721, 1.051239487081766 20.212537803500894, 0.38201019540429115 0.014142360538244247 M0.6564653348177671 64.23817698843777 C-1.2661040795594454 48.9171974170953, 0.004137240573763856 33.80512783415615, -0.12405826337635517 -0.41643144004046917" stroke="#000000" stroke-width="1" fill="none"></path></g><g transform="translate(467.1428571428569 426.14285714285694) rotate(0 129 12)"><text x="0" y="19" font-family="Cascadia, Segoe UI Emoji" font-size="20px" fill="#000000" text-anchor="start" style="white-space: pre;" direction="ltr">OAuthLibWrapperService</text></g><g transform="translate(973.2142857142853 233.8571428571429) rotate(0 133.5 32)"><path d="M-1.3490592575999407 -0.6851964067469924 C95.03269432154076 2.2211031640889245, 194.04615581482636 0.5349997490448078, 265.6266698090275 0.7205979648198754 M-0.32826312256185264 0.7852476168115065 C98.97369465413055 2.4600756056909177, 197.23128124486865 1.1001632564632509, 267.01073498435653 -0.5119173259398535 M266.9616751335561 -1.97962811216712 C268.81609739169477 11.765673694759608, 266.2326214443147 25.831261298805476, 267.72015842422843 62.7672959305346 M266.257861064747 0.2114564012736082 C266.1674478841573 19.493454511091116, 267.14318682678044 39.04191494695843, 266.56636451371014 63.981441302224994 M267.757936895032 63.86651929012972 C181.53941659059393 64.91102461034907, 99.10175697041797 63.74302988567971, -0.6945054216718822 64.28314567657085 M267.66559568745794 63.503242081573525 C209.54867378938823 63.9907684603586, 153.57107852811816 64.46692223884395, -0.39347331312796324 63.911351600086206 M-1.6480844356119633 65.31620857492089 C-0.8353468789160252 45.51366127505898, -1.4013896597921849 28.999417350441213, -0.7357391454279423 1.1357110477983952 M-0.14103837125003338 63.93678138963878 C0.21379146106541158 38.217069203779104, 0.7935457540303469 14.230982429906724, -0.6337701212614775 -0.7175234127789736" stroke="#000000" stroke-width="1" fill="none"></path></g><g><g transform="translate(1494.1689846744673 470.4447380329525) rotate(0 -131.4940155424523 -82.18951823219064)"><path d="M-0.20260529145598416 0.0399761281907558 C-43.75616507011531 -27.531384019899377, -218.14831696837538 -137.04480286562446, -261.88341437520853 -164.41901259257202 M-1.7681117988098414 -0.9846403498481959 C-45.4228406513489 -27.91836574584358, -219.12744675208216 -136.35859217364904, -262.7854257934487 -163.41218246260402" stroke="#000000" stroke-width="1" fill="none"></path></g><g transform="translate(1494.1689846744673 470.4447380329525) rotate(0 -131.4940155424523 -82.18951823219064)"><path d="M-233.36239191035668 -157.08531712132606 C-242.59735242113177 -159.91589906396084, -249.67306259159224 -158.51701900327186, -263.93444887555603 -163.9053788643491 M-234.2983404517446 -156.25735845740053 C-242.8715449284978 -160.01905979629865, -252.98236366285386 -162.24526267236482, -262.3836696428007 -164.2410345330995" stroke="#000000" stroke-width="1" fill="none"></path></g><g transform="translate(1494.1689846744673 470.4447380329525) rotate(0 -131.4940155424523 -82.18951823219064)"><path d="M-244.20338023840864 -139.66139751473693 C-250.84034185049188 -146.88475054369135, -255.17152546575974 -149.896945249321, -263.93444887555603 -163.9053788643491 M-245.13932877979656 -138.8334388508114 C-249.95949730211697 -148.6291257833836, -256.3212359294982 -156.88094813305094, -262.3836696428007 -164.2410345330995" stroke="#000000" stroke-width="1" fill="none"></path></g></g><g transform="translate(1376.8174603174605 479.095238095238) rotate(0 133.5 32)"><path d="M0.5283255471172005 -0.22735190561496316 C55.15315427898286 0.6778744296421967, 112.31895409362745 -1.8980415460104023, 267.22879132926454 1.50226772729052 M-0.31638227727986123 0.4042950238165691 C60.71028743352831 1.1795079193878157, 119.58490437675073 1.8952072597035867, 267.51791279149984 0.07290088905099183 M268.30264649167657 0.04879971966147423 C266.8498160494864 18.989151027053595, 267.7622924698889 40.620630111545324, 267.86514899507165 65.6071411035955 M266.27741996757686 0.33925490267574787 C267.07259123913946 14.318520068004728, 266.78954505316915 27.18235440142453, 267.6456276010722 63.089931355789304 M265.4416605311216 63.98201937088173 C184.04340117575873 63.437117063524404, 101.60124124868261 64.37013094017283, -0.6663265423646301 65.47938711694029 M267.471235292014 63.86015040872038 C168.2393796795744 66.08244818869001, 69.10210249398261 66.31961554167363, -0.7015687098758295 63.87606958383334 M-0.9488877318799496 64.24029442295432 C-0.9201783166825771 51.62755680307746, -0.6551399455964565 35.26527313217521, 1.4447381235659122 -1.0460373498499393 M0.9490988682955503 63.95147149451077 C-0.5908591569215059 48.63256101496518, -0.2049104393273592 33.623634742572904, -0.49992753751575947 -0.0021634232252836227" stroke="#000000" stroke-width="1" fill="none"></path></g><g><g transform="translate(1083.21702253808 228.1428571428571) rotate(0 12.046304435977902 -46.379569717336764)"><path d="M1.1229803167283536 0.982868794351816 C4.9616030522408625 -14.440997855063634, 20.316124774129463 -78.25069086549857, 23.83920261828455 -93.74200822902534 M0.2534062536712738 0.453270966047421 C3.938566971111178 -14.765670066090406, 19.254883084572253 -77.0882874815637, 23.342432536829662 -92.83061013792333" stroke="#000000" stroke-width="1" fill="none"></path></g><g transform="translate(1083.21702253808 228.1428571428571) rotate(0 12.046304435977902 -46.379569717336764)"><path d="M28.05171243795622 -61.5556048509785 C23.596332717484486 -75.11723171814377, 25.429949369263092 -85.651229288134, 25.304010037977648 -93.52305222351727 M25.80493975193668 -63.51993170018578 C25.639264710026143 -69.87114013177354, 23.954714195557262 -78.97812283093263, 23.271445895258736 -93.4267854080784" stroke="#000000" stroke-width="1" fill="none"></path></g><g transform="translate(1083.21702253808 228.1428571428571) rotate(0 12.046304435977902 -46.379569717336764)"><path d="M8.150880924792599 -66.56328969235115 C10.95482761418614 -78.47188510142402, 20.097797795117813 -87.1666158626901, 25.304010037977648 -93.52305222351727 M5.904108238773059 -68.52761654155843 C10.837425259619497 -73.44229768731431, 14.255533812217498 -81.26528838624257, 23.271445895258736 -93.4267854080784" stroke="#000000" stroke-width="1" fill="none"></path></g></g><g transform="translate(971.3571428571431 62.78571428571422) rotate(0 133.5 32)"><path d="M-1.1862624397513537 -0.0784532376021713 C71.01558937358888 0.5521573763560127, 142.13283022802713 0.1804419475057435, 265.6363320606773 0.4544945550462395 M-0.23025977426263539 0.137876568326132 C63.54562186085109 0.3824331160866031, 125.41011954340897 0.9576083408518561, 266.9819762066731 0.2549059163035318 M266.67009922489524 -0.6403150819242001 C266.09680740222336 13.607087860256435, 265.02295975074173 26.81881956830621, 267.31684240326285 62.29964790120721 M266.40942828543484 0.5127662252634764 C266.9370926500112 12.960139090940357, 268.08636217124763 27.121484048292043, 266.18383597023785 64.94611935131252 M266.2736259689597 64.71197965358607 C184.8163794379149 66.75528556977751, 100.59072734308529 65.69228743833324, 0.5202420274633258 64.5690772822025 M266.620833387991 63.960722915033955 C199.3404915377134 63.682329644074564, 129.82207224513382 63.58818316178721, 0.32838108446934966 64.17910121997852 M-0.8875058032572269 63.20737097039819 C-0.537533902078867 49.668231568485496, -0.9191436995565891 35.155188510566944, -1.0624865628778934 0.7111233212053776 M0.7635043133050203 63.11670754663646 C-0.04665685169398792 48.27435436956584, -1.3104618238657713 34.316261370107526, 0.18540726788342 -0.20577199943363667" stroke="#000000" stroke-width="1" fill="none"></path></g><g transform="translate(1039.3571428571431 81.28571428571422) rotate(0 58.5 12)"><text x="0" y="19" font-family="Cascadia, Segoe UI Emoji" font-size="20px" fill="#000000" text-anchor="start" style="white-space: pre;" direction="ltr">AuthConfig</text></g><g><g transform="translate(1423.8107182515178 662.6096789033286) rotate(0 -161.54623198102416 -174.97518224237228)"><path d="M0.4581611193716526 -0.10460681095719337 C-53.48918836131909 -58.6048472135195, -268.8713489212204 -291.6510661298677, -322.66800946758497 -349.8457576737874 M-0.7604430222976952 -1.2051293320488186 C-54.943816465784174 -59.068077847506615, -269.87064695691845 -290.9465473085816, -323.5506250814199 -348.7640530998115" stroke="#000000" stroke-width="1" fill="none"></path></g><g transform="translate(1423.8107182515178 662.6096789033286) rotate(0 -161.54623198102416 -174.97518224237228)"><path d="M-297.0299188698659 -334.86786758537676 C-308.70302685333985 -339.4545319500924, -318.01691489845916 -345.78646314729525, -324.98801352760194 -348.9417387517397 M-296.10830868398943 -335.8225851413914 C-303.9675393946641 -338.06678276109096, -310.50934014139904 -341.73341312499605, -322.84525479121504 -347.8347746199225" stroke="#000000" stroke-width="1" fill="none"></path></g><g transform="translate(1423.8107182515178 662.6096789033286) rotate(0 -161.54623198102416 -174.97518224237228)"><path d="M-312.0741543762052 -320.911113649893 C-318.0945502383426 -330.9240167309062, -321.62131276574775 -342.6247476129093, -324.98801352760194 -348.9417387517397 M-311.1525441903287 -321.8658312059077 C-315.20297851699746 -327.5597773137986, -318.0319403404061 -334.6708618165076, -322.84525479121504 -347.8347746199225" stroke="#000000" stroke-width="1" fill="none"></path></g></g><g transform="translate(1393.4285714285716 673.6428571428571) rotate(0 133.5 32)"><path d="M-0.16014803576692044 1.1248726949830858 C88.96930086657946 1.7168871382287612, 177.73335164086492 1.954158753692495, 266.0526862146818 -0.17014389563743174 M-0.41373575880914476 -0.6871478762283966 C98.6435058328046 1.8475988860947594, 195.22743803959628 1.7659950063162313, 267.16483234278763 -0.46203089783937185 M265.7036061026156 1.770179357379675 C267.5113402737677 19.247028543800116, 267.4626159800589 37.21712953075767, 268.9879752136767 65.55153938755393 M266.6918989252299 -0.34698022715747356 C267.99266120783983 14.409474574401976, 267.2703240215033 28.416038094833496, 266.4707491826266 64.53379456885159 M267.6519120606703 63.574952618128954 C165.97178286526497 64.38247482516059, 65.42221341855652 67.3790614814019, -0.15290548181918562 64.7257047060912 M267.3392127268757 63.60317421821216 C212.59081578707594 62.708314469094034, 157.98217624126266 62.53992210618257, -0.36308679385720044 64.46399931907737 M1.7652508951723576 62.42596086487174 C-0.23506286010146138 39.63242757543921, -0.9607662187516689 17.321159758418794, 1.542120311409235 -0.31044796481728554 M-0.015973107889294624 64.96210907585919 C0.22342368714511396 50.7776353944093, 0.13211753718554975 35.36634172089398, -0.04324849136173725 0.3520734775811434" stroke="#000000" stroke-width="1" fill="none"></path></g><g><g transform="translate(1665.142857142857 705.2544152853559) rotate(0 35.55431811804078 -13.92915295319878)"><path d="M-0.2108963169157505 0.6238861598074437 C11.801396336576111 -4.0501240545084825, 60.7434985787708 -23.643538754965242, 72.88939184871774 -28.482192066204995 M-1.7807556126359851 -0.09417755163274699 C10.037919364061347 -4.617064314656158, 59.859966308344866 -22.909764485062162, 72.15597691927377 -27.494251256096437" stroke="#000000" stroke-width="1" fill="none"></path></g><g transform="translate(1665.142857142857 705.2544152853559) rotate(0 35.55431811804078 -13.92915295319878)"><path d="M50.31410341638916 -7.411117863282637 C56.02050110338881 -14.885046394516381, 64.56386377927922 -23.86076333712483, 70.99345886130158 -27.40342763181336 M49.02065832655721 -7.299049141258077 C56.23832849741864 -13.783651287393845, 62.62927864310087 -20.219736235383216, 71.43011243623022 -27.69871225136824" stroke="#000000" stroke-width="1" fill="none"></path></g><g transform="translate(1665.142857142857 705.2544152853559) rotate(0 35.55431811804078 -13.92915295319878)"><path d="M43.19618529715309 -26.658331792412497 C51.45148759185643 -27.03736002311122, 62.61402818259677 -28.930686187813432, 70.99345886130158 -27.40342763181336 M41.902740207321145 -26.546263070387937 C51.30194007976413 -27.080900400451906, 59.88064206745513 -27.601192693676907, 71.43011243623022 -27.69871225136824" stroke="#000000" stroke-width="1" fill="none"></path></g></g><g transform="translate(1404.4285714285716 694.1428571428571) rotate(0 122 9.5)"><text x="0" y="15" font-family="Cascadia, Segoe UI Emoji" font-size="16px" fill="#000000" text-anchor="start" style="white-space: pre;" direction="ltr">TokenRevocationInterceptor</text></g><g><g transform="translate(1655.9208238674105 525.5459103859178) rotate(0 38.248945805993344 12.184204560037358)"><path d="M0.3597239099442959 0.23285692110657696 C13.34865934543606 4.003517556548627, 64.93882060015183 19.75045999169604, 77.40845137866117 23.76602342865176 M-0.9105597666744143 -0.6904971406515688 C12.05699437736828 3.7538439567336312, 63.94532701492851 20.661607676234777, 77.00453625121058 25.0589062607263" stroke="#000000" stroke-width="1" fill="none"></path></g><g transform="translate(1655.9208238674105 525.5459103859178) rotate(0 38.248945805993344 12.184204560037358)"><path d="M47.40579056716541 27.674782445474257 C53.916639748045164 23.638992295359643, 62.53405492104225 25.570508378034518, 78.78073782347978 24.085001267341223 M46.947848757496274 26.36568790656208 C56.889828773229496 25.216917329089206, 66.05450157506331 24.919615782177406, 76.8147335915351 25.094721065682617" stroke="#000000" stroke-width="1" fill="none"></path></g><g transform="translate(1655.9208238674105 525.5459103859178) rotate(0 38.248945805993344 12.184204560037358)"><path d="M53.85027571008845 8.191748451034794 C58.89523538177767 9.167542612510077, 65.86133782623261 16.091324378498264, 78.78073782347978 24.085001267341223 M53.39233390041931 6.882653912122617 C61.03912485174873 12.206335272848143, 68.0667856582788 18.36967044518604, 76.8147335915351 25.094721065682617" stroke="#000000" stroke-width="1" fill="none"></path></g></g><g transform="translate(1795.1428571428564 588.7142857142858) rotate(0 33 17)"><text x="33" y="27" font-family="Cascadia, Segoe UI Emoji" font-size="28px" fill="#000000" text-anchor="middle" style="white-space: pre;" direction="ltr">HTTP</text></g><g transform="translate(1678.5714285714284 466.8571428571429) rotate(0 147.85714285714278 144.28571428571428)"><path d="M146.40490564642045 -0.3871920530900862 C184.48049909103113 33.14564159421679, 218.82332250388907 70.38068262885717, 296.3520346222706 144.00446997666202 M147.277276130939 -0.325031248449811 C188.7426892601696 37.95112717722346, 229.79709451229337 78.43274741946367, 295.36278737220374 144.8210359120753 M295.9683058896373 146.32893237425503 C262.6390249630999 177.0421443881847, 232.7891501284714 208.40918234338986, 147.47123235459568 289.29313446658216 M295.1994766614689 144.90579007429375 C252.9397125191787 186.0230493359335, 209.60400902350486 227.82945075376347, 148.8045559807696 287.98332520435025 M147.4533730508264 289.26160198009086 C94.67179110963691 238.80829180587168, 41.56613481305023 184.23860713615034, -1.5696857896243825 144.12313040547875 M148.61663860796835 288.53606040390173 C116.54578601910293 259.47744460337356, 84.01159343843558 227.97510865556592, -0.23797310815987027 144.91763993013595 M0.3343520712881177 144.50322931463478 C34.13909386775042 110.79638672655706, 66.95602322309952 80.94126685577778, 149.34995197269637 -0.32017631252255174 M0.19585146921799532 145.4636749782668 C38.80652987732848 106.61077924647068, 78.02702672259659 69.66934416021056, 147.71787326998725 -0.4096562098043173" stroke="#000000" stroke-width="1" fill="none"></path></g><g transform="translate(1421.8174603174605 497.595238095238) rotate(0 88 12)"><text x="0" y="19" font-family="Cascadia, Segoe UI Emoji" font-size="20px" fill="#000000" text-anchor="start" style="white-space: pre;" direction="ltr">AuthInterceptor</text></g><g transform="translate(1015.2142857142853 252.3571428571429) rotate(0 99.5 12)"><text x="0" y="19" font-family="Cascadia, Segoe UI Emoji" font-size="20px" fill="#000000" text-anchor="start" style="white-space: pre;" direction="ltr">AuthConfigService</text></g><g transform="translate(408.79365079365084 1040.1428571428573) rotate(0 49 17)"><text x="0" y="27" font-family="Cascadia, Segoe UI Emoji" font-size="28px" fill="#000000" text-anchor="start" style="white-space: pre;" direction="ltr">Facade</text></g><g><g transform="translate(285.85714285714266 466.0714285714286) rotate(0 81.78283282309772 -14.864070100709796)"><path d="M1.0699265073984863 0.822438632324338 C28.097445721551775 -4.197574974223972, 134.2120226215571 -25.456034816429018, 161.13522092811763 -30.55057883374393 M0.1724991944432257 0.208614968955517 C27.666444707214833 -4.617538032829762, 136.394715628922 -24.551876306831836, 163.3931664517522 -29.30220747023821" stroke="#000000" stroke-width="1" fill="none"></path></g><g transform="translate(285.85714285714266 466.0714285714286) rotate(0 81.78283282309772 -14.864070100709796)"><path d="M138.8378421425017 -15.649147596231881 C142.15635545620617 -16.656654640456267, 149.05200282605642 -19.68858637858483, 161.92358472667635 -27.481658606156707 M137.20712980005317 -13.764629929348114 C145.43208903740674 -18.72124470480734, 152.60761464643795 -23.753067570857766, 163.2877589911595 -29.42573773983866" stroke="#000000" stroke-width="1" fill="none"></path></g><g transform="translate(285.85714285714266 466.0714285714286) rotate(0 81.78283282309772 -14.864070100709796)"><path d="M135.20092035385292 -35.84550375988405 C139.2259191464083 -32.55987371698044, 146.90050595066486 -31.266241376089255, 161.92358472667635 -27.481658606156707 M133.5702080114044 -33.96098609300029 C142.93736290145299 -33.17530789350988, 151.15199672216562 -32.436811584373984, 163.2877589911595 -29.42573773983866" stroke="#000000" stroke-width="1" fill="none"></path></g></g><g><g transform="translate(223.85714285714266 512.0714285714287) rotate(0 48.720978757739076 74.42561482250693)"><path d="M1.1021251391619444 -0.11740751378238201 C17.020475728437304 24.78388739712536, 79.2152577828616 123.90843651182948, 95.02190221063793 149.04160970337688 M0.22160210788249968 -1.2246504038572312 C16.549065467715263 23.82919208347797, 81.3996492499113 125.08894246876238, 97.22035540759563 150.07588004887103" stroke="#000000" stroke-width="1" fill="none"></path></g><g transform="translate(223.85714285714266 512.0714285714287) rotate(0 48.720978757739076 74.42561482250693)"><path d="M73.21763019356655 130.1912776177301 C77.93385306829003 136.23978561789494, 86.84078414466748 139.47127334251917, 98.11156566374004 149.68615439541637 M74.25912261381524 132.07189544211317 C79.9114026266862 135.93655131499975, 87.52198028782239 141.64734665607298, 96.43064904425293 150.16001513328402" stroke="#000000" stroke-width="1" fill="none"></path></g><g transform="translate(223.85714285714266 512.0714285714287) rotate(0 48.720978757739076 74.42561482250693)"><path d="M90.52114840340258 119.15913095682534 C90.71661978999212 128.2273792572529, 95.13646211320625 134.31968526201481, 98.11156566374004 149.68615439541637 M91.56264082365126 121.03974878120842 C92.52085148166253 127.9732446317602, 95.3271228071028 136.74710561396893, 96.43064904425293 150.16001513328402" stroke="#000000" stroke-width="1" fill="none"></path></g></g><g><g transform="translate(125.85714285714266 512.0714285714287) rotate(0 103.35753752104938 197.1687704792619)"><path d="M-0.8047159362584353 -0.4429591309279203 C33.78659595164161 65.30651502497496, 172.78614472461246 329.05866843350236, 207.5197909783572 395.03031628020113 M0.9736694678664208 -1.7211166200041772 C35.36739880810181 64.10119921594858, 172.04525183608135 329.7080461493135, 206.3196357783675 396.05865757852797" stroke="#000000" stroke-width="1" fill="none"></path></g><g transform="translate(125.85714285714266 512.0714285714287) rotate(0 103.35753752104938 197.1687704792619)"><path d="M183.54317486639363 374.90350804174494 C189.31567843372002 381.23905597226616, 196.46991990467424 389.30099444151705, 206.3351930656284 395.0244709489495 M184.8476654205401 375.96704724593263 C189.86701009271178 379.5605914768355, 194.1071598247516 385.85774464016947, 206.4005633449927 396.51322614248846" stroke="#000000" stroke-width="1" fill="none"></path></g><g transform="translate(125.85714285714266 512.0714285714287) rotate(0 103.35753752104938 197.1687704792619)"><path d="M201.78294720060427 365.4997477522648 C202.16800597086538 374.51210340143405, 203.89299733935724 385.37316488492525, 206.3351930656284 395.0244709489495 M203.08743775475074 366.5632869564525 C203.67460076980075 372.48669095231264, 203.557995182865 381.0300279993522, 206.4005633449927 396.51322614248846" stroke="#000000" stroke-width="1" fill="none"></path></g></g><g><g transform="translate(283.85714285714266 484.0714285714286) rotate(0 470.44620644968006 181.5015325047449)"><path d="M0.09423950426280503 1.0351102698594332 C157.07529036514464 61.4745492288222, 785.3831816267223 302.22697017478447, 942.2078363846988 362.47012579329316 M-1.315423485338688 0.532939216196537 C155.49765778869389 60.62245137681565, 783.9107331117987 300.61470630476873, 941.3689050230383 360.5943670859933" stroke="#000000" stroke-width="1" fill="none"></path></g><g transform="translate(283.85714285714266 484.0714285714286) rotate(0 470.44620644968006 181.5015325047449)"><path d="M913.0976457232729 360.4788061098035 C921.9580296042438 358.6634327028842, 931.8005589186614 359.0724544676691, 942.8875689043849 360.018583566919 M911.9504053108514 360.03685811039315 C917.4183729808746 359.63658999550546, 923.97000433693 361.05575346954623, 941.1220196795836 361.1919531803951" stroke="#000000" stroke-width="1" fill="none"></path></g><g transform="translate(283.85714285714266 484.0714285714286) rotate(0 470.44620644968006 181.5015325047449)"><path d="M920.4124191877097 341.30554108921274 C926.855772849587 345.7616253005216, 934.3078761220307 352.43636017832546, 942.8875689043849 360.018583566919 M919.2651787752882 340.8635930898024 C923.323254910904 344.66220100204816, 928.2825512391926 350.25514533716074, 941.1220196795836 361.1919531803951" stroke="#000000" stroke-width="1" fill="none"></path></g></g><g><g transform="translate(1689.8571428571427 1000.0714285714287) rotate(0 -50.42231242801063 39.76278786770996)"><path d="M0.8493807423859836 -1.1421842861920595 C-16.131819082424048 12.49440564227601, -83.8767825257033 67.09736844214301, -101.17767877690494 80.66776002161205 M-0.16383309720084083 0.8725650182180109 C-17.293184118848295 14.26273240733271, -84.96071222065017 65.4170636624905, -101.69400559840724 78.89575928417966" stroke="#000000" stroke-width="1" fill="none"></path></g><g transform="translate(1689.8571428571427 1000.0714285714287) rotate(0 -50.42231242801063 39.76278786770996)"><path d="M-87.63718516736874 54.8642536434523 C-90.59625160198259 61.13591191074729, -96.97407034003545 71.60831807269463, -102.35306407799945 77.48389088889584 M-85.02282519530156 52.63446529816754 C-89.27452863278742 60.22633716984974, -95.15514475944092 68.68524972322636, -102.08565341504291 79.66400246383623" stroke="#000000" stroke-width="1" fill="none"></path></g><g transform="translate(1689.8571428571427 1000.0714285714287) rotate(0 -50.42231242801063 39.76278786770996)"><path d="M-75.04310646356555 71.06638881102359 C-82.36953185045434 71.60857111652831, -93.27022027360984 76.26235825069284, -102.35306407799945 77.48389088889584 M-72.42874649149837 68.83660046573883 C-80.2756708003658 71.8879245061001, -89.74603464347697 75.72866854652598, -102.08565341504291 79.66400246383623" stroke="#000000" stroke-width="1" fill="none"></path></g></g><g><g transform="translate(1683.8571428571427 950.0714285714287) rotate(0 -90.37732490189376 -22.2503393124789)"><path d="M0.23731525652110586 0.2447475302964448 C-30.019396333768963 -7.213760694985588, -151.07475580461323 -37.40411115201811, -180.9919650603086 -44.74542615525424 M-1.0972329631447792 -0.6723639616370201 C-31.0367394271493 -7.992221256991227, -149.0426214709878 -36.6476927186052, -178.8007921805978 -43.59934963554144" stroke="#000000" stroke-width="1" fill="none"></path></g><g transform="translate(1683.8571428571427 950.0714285714287) rotate(0 -90.37732490189376 -22.2503393124789)"><path d="M-148.58944439576524 -48.68121748419462 C-160.54238353665116 -44.56033220894074, -169.27472108848386 -43.08368173951301, -179.66382213927807 -42.91848509095609 M-148.01994086211133 -46.17614447606711 C-155.8725210021025 -46.144962048566576, -160.1067330538102 -46.54605769965677, -178.40041733499618 -43.10517759982496" stroke="#000000" stroke-width="1" fill="none"></path></g><g transform="translate(1683.8571428571427 950.0714285714287) rotate(0 -90.37732490189376 -22.2503393124789)"><path d="M-153.35826674581756 -28.72180026375753 C-163.66359725724575 -31.510157599523467, -170.74739088192226 -36.93331878862132, -179.66382213927807 -42.91848509095609 M-152.78876321216364 -26.21672725563002 C-159.4939614248599 -30.15778141256071, -162.77144478305394 -34.56316696142682, -178.40041733499618 -43.10517759982496" stroke="#000000" stroke-width="1" fill="none"></path></g></g></svg>